<svg id="图层_1" data-name="图层 1" xmlns="http://www.w3.org/2000/svg" viewBox="0 0 190.48 34.02"><defs></defs><path class="cls-1" d="M227.39,430.85a2.88,2.88,0,0,0,.54,1.55,3.07,3.07,0,0,0,2.46,1c1.6,0,2.56-.7,2.56-1.85a1.58,1.58,0,0,0-.88-1.48,15.63,15.63,0,0,0-3.12-.85,8.22,8.22,0,0,1-3.37-1.21,4.63,4.63,0,0,1-2-4c0-3.21,2.58-5.23,6.68-5.23,2.64,0,4.66.83,5.79,2.37a5.86,5.86,0,0,1,1,2.5l-4.42.48a2.18,2.18,0,0,0-.49-1.17,2.55,2.55,0,0,0-2-.74c-1.38,0-2.31.66-2.31,1.64a1.41,1.41,0,0,0,1,1.33,11.89,11.89,0,0,0,2.87.69,10.1,10.1,0,0,1,3.37,1.19,4.63,4.63,0,0,1,2.27,4.24,5.28,5.28,0,0,1-1.46,3.83,5,5,0,0,1-1.79,1.15,10.6,10.6,0,0,1-3.7.62,10.06,10.06,0,0,1-4.64-1,5,5,0,0,1-2.25-2.66,7.85,7.85,0,0,1-.46-2Z" transform="translate(-223.06 -403.94)"></path><path class="cls-1" d="M253.7,433.42a36.9,36.9,0,0,0,2.2,3.08h-5.41a26.78,26.78,0,0,0-1.44-2.65l-3.22-5.16-2.1,2.1v2.63a24.53,24.53,0,0,0,.16,3.08h-4.41a25,25,0,0,0,.17-3.08V422.26a23.89,23.89,0,0,0-.17-3.08h4.41a24,24,0,0,0-.16,3.08v3.68l4.14-4.43a13.05,13.05,0,0,0,1.81-2.33h5.62a7.4,7.4,0,0,1-.65.64L253.51,421s-.27.27-.48.48L248.68,426Z" transform="translate(-223.06 -403.94)"></path><path class="cls-1" d="M266.89,433.42a24.56,24.56,0,0,0,.17,3.08h-4.54a24.21,24.21,0,0,0,.17-3.08v-3.86l-4.77-7.86c-.77-1.21-.88-1.36-1.69-2.52h5.27a12.09,12.09,0,0,0,1,2.18l2.31,4.23,2.31-4.21a10.85,10.85,0,0,0,1-2.2h5.24c-.52.75-1.2,1.81-1.66,2.52l-4.77,7.86Z" transform="translate(-223.06 -403.94)"></path><path class="cls-1" d="M274.76,424.24a22.84,22.84,0,0,0,3.35.16h10.45a3.34,3.34,0,0,0,1.66-.23l1.63,1.75a4.19,4.19,0,0,0-.59,1.31c-1.93,5.46-4.78,8.25-10.55,10.39a11.52,11.52,0,0,0-2.33-3.41c4.49-1.11,7.39-3.29,8.7-6.6h-9a32.41,32.41,0,0,0-3.31.12Zm1.72-5.21a18.44,18.44,0,0,0,3.06.17h6.64a19.28,19.28,0,0,0,3.27-.17v3.5c-.79-.06-1.77-.11-3.2-.11H279.5a27.79,27.79,0,0,0-3,.11Z" transform="translate(-223.06 -403.94)"></path><path class="cls-1" d="M311.24,420.84a9,9,0,0,0-.81.77,35.48,35.48,0,0,1-4.81,4.19v8a27.73,27.73,0,0,0,.13,3.37h-4a29.79,29.79,0,0,0,.12-3.35v-5.74a36.11,36.11,0,0,1-6.8,3.08,11.07,11.07,0,0,0-2-3.35,30.53,30.53,0,0,0,11.05-5.42,15.39,15.39,0,0,0,3.79-3.81Z" transform="translate(-223.06 -403.94)"></path><path class="cls-1" d="M330.1,421.68a2.62,2.62,0,0,0-.44,1.16c-1.66,7.12-5.26,11.45-12.11,14.51a11,11,0,0,0-2.62-3.5c5.53-1.7,9.3-5.39,10.46-10.24h-8.63a27.32,27.32,0,0,0-3.5.13V420a20.6,20.6,0,0,0,3.56.17h9.89a3.25,3.25,0,0,0,1.52-.28Z" transform="translate(-223.06 -403.94)"></path><path class="cls-1" d="M346.1,425.94h2.46a19.82,19.82,0,0,0,2.44-.12V429a21.36,21.36,0,0,0-2.46-.12H347a12.4,12.4,0,0,0,4.66,4.47,16.18,16.18,0,0,0-1.56,3.29,14.18,14.18,0,0,1-4.08-4.83c0,.67.06,1.33.06,1.86v1.47a24.36,24.36,0,0,0,.13,2.65H342.9a26.44,26.44,0,0,0,.12-2.65v-1.27c0-.56,0-1.2.07-2a14,14,0,0,1-4.33,4.66,14.23,14.23,0,0,0-1.69-2.81v1.33a22.68,22.68,0,0,0,.13,2.69h-3.29a26.43,26.43,0,0,0,.12-2.69v-2.81c0-.46,0-1.27.06-2a10.67,10.67,0,0,1-1.62,3.35,15.37,15.37,0,0,0-1-3.54,14.34,14.34,0,0,0,2.35-5.51h-.48a6,6,0,0,0-1.33.1v-3.1a5.77,5.77,0,0,0,1.33.11H334v-1.36a12.71,12.71,0,0,0-.12-2.16h3.31a13.73,13.73,0,0,0-.13,2.16v1.36h.37a4.54,4.54,0,0,0,1-.09v1.46a13.61,13.61,0,0,0,1.17-4.37l2.87.73c-.06.2-.17.62-.31,1.22l-.13.52h1v-.87a15.36,15.36,0,0,0-.12-2.1h3.33a14.75,14.75,0,0,0-.13,2.1v.87H348a19.09,19.09,0,0,0,2.43-.12v3.18a21.42,21.42,0,0,0-2.45-.12H346.1Zm-9,7.7a13,13,0,0,0,4.91-4.76h-.66a16.42,16.42,0,0,0-2.48.14v-1.16c-.52,1.35-.73,1.91-.9,2.5a7.89,7.89,0,0,1-.91-1.75c0,.56,0,1.35,0,2.12Zm1.77-7.84c.42.06.58.08,1.1.12a13.29,13.29,0,0,0-1.54-1.29v0a4.09,4.09,0,0,0-.89-.08h-.38a9.83,9.83,0,0,0,1.71,2.75Zm2.27-1.71a12.28,12.28,0,0,1-.88,1.83c.46,0,.67,0,1.07,0H343v-1.85Z" transform="translate(-223.06 -403.94)"></path><path class="cls-1" d="M355.74,429c-.77,0-1.67,0-2.31.09v-3a23.61,23.61,0,0,0,2.39.1h4.69a22.71,22.71,0,0,0,2.33-.1v3c-.65,0-1.54-.09-2.29-.09h-.84v3.85c1.34-.22,2.15-.41,3.9-.81v3c-3.31.77-6.48,1.37-9,1.73a13.49,13.49,0,0,0-1.43.25l-.46-3.27a31.51,31.51,0,0,0,3.89-.38V429Zm13.92-7.72a12.31,12.31,0,0,0,2-.1v3.16a23.65,23.65,0,0,0-2.7-.12h-2.4c.25,4.49,1,7.47,2.5,9.34a12.3,12.3,0,0,0,.58-3,11.37,11.37,0,0,0,2.56,1.54,10.62,10.62,0,0,1-1.18,4.29,2.06,2.06,0,0,1-1.77,1.17c-1.21,0-2.58-1.21-3.64-3.23-1.25-2.35-2-5.56-2.23-10.07h-7.95c-1,0-1.79,0-2.71.12V421.2a24.59,24.59,0,0,0,2.71.12h7.82l0-.91a16.49,16.49,0,0,0-.14-2h3.43a7.49,7.49,0,0,0-.08,1.22c0,.59,0,1,0,1.71h1.91a9.62,9.62,0,0,0-1.58-1.79l2.38-1.21c.74.77.79.82.95,1a11,11,0,0,1,.92,1.15l-1.62.83Z" transform="translate(-223.06 -403.94)"></path><path class="cls-1" d="M377.51,425.63a20.11,20.11,0,0,1-2.92,1.42A14.59,14.59,0,0,0,373,424c3.17-.86,6.87-3.4,8.29-5.67h3.37c1.48,2.19,5.18,4.6,8.49,5.52a14.92,14.92,0,0,0-1.46,3.29,22.56,22.56,0,0,1-3.1-1.52v1.19a16,16,0,0,0-2-.09h-7.19a17.25,17.25,0,0,0-1.95.09Zm-.94,5.18a20.25,20.25,0,0,0-2.54.13v-3.19c.73.07,1.6.11,2.54.11h13.07c1,0,1.77,0,2.52-.11v3.19a19.8,19.8,0,0,0-2.52-.13h-2.06l.77.86a45.41,45.41,0,0,1,3.62,4.51L389.1,438c-.54-.87-.6-1-1-1.54-3.31.38-4.83.52-11.42,1-.61,0-1.31.13-1.84.21l-.39-3.47c.58,0,.87,0,1.39,0l1.44,0a27.69,27.69,0,0,0,1.81-3.4ZM386,423.9a15.2,15.2,0,0,1-2.91-2.77,15,15,0,0,1-2.94,2.77Zm-3.21,6.91A25.85,25.85,0,0,1,381,434.1l1.63-.06c1.45-.06,1.7-.08,3.58-.25-.5-.6-.84-1-1.77-2l2.45-1Z" transform="translate(-223.06 -403.94)"></path><path class="cls-1" d="M400.15,435.54l0,1a10.26,10.26,0,0,0,.1,1.22H396.9a12.66,12.66,0,0,0,.13-2.28v-4.23a12.73,12.73,0,0,1-1.83,1.31,11.41,11.41,0,0,0-1.36-3.12,12.51,12.51,0,0,0,5.42-5.27h-2.94a12.82,12.82,0,0,0-1.81.09v-3.09a10,10,0,0,0,1.62.09h.92V419.7a14,14,0,0,0-.1-1.58h3.28a11.75,11.75,0,0,0-.1,1.6v1.52h.58a7.39,7.39,0,0,0,1.19-.06l1.37,1.43a9,9,0,0,0-.5,1A15.28,15.28,0,0,1,400.9,427a10.87,10.87,0,0,0,3.33,2.5,17.16,17.16,0,0,0-1.56,3,10.12,10.12,0,0,1-2.52-2.15Zm9.18-1.46H411a23.54,23.54,0,0,0,2.54-.1v3.26c-.92-.08-1.73-.12-2.52-.12h-6.77c-.79,0-1.62,0-2.43.12V434a23.55,23.55,0,0,0,2.5.1H406v-7.62H405a19.7,19.7,0,0,0-2.06.11v-3.23a14.59,14.59,0,0,0,2.06.1H406v-2.81a19,19,0,0,0-.12-2.45h3.54a16.08,16.08,0,0,0-.13,2.45v2.81H411a14.25,14.25,0,0,0,2.06-.1v3.23a19.85,19.85,0,0,0-2.06-.11h-1.65Z" transform="translate(-223.06 -403.94)"></path><path class="cls-2" d="M234.58,414.08a23.07,23.07,0,0,0-3.65-3.53A14.15,14.15,0,0,1,226.4,414a4.84,4.84,0,0,0-1-1.32,9.84,9.84,0,0,0,2.38-1.31,11.45,11.45,0,0,0,4-4.84l.13-.31-3.94.07a8.79,8.79,0,0,0-1.29.1l-.05-1.53a5.13,5.13,0,0,0,1,.07H228l4.19-.06a2.53,2.53,0,0,0,1.06-.13l.78.81a2.42,2.42,0,0,0-.38.65,16.31,16.31,0,0,1-1.85,3.28,19,19,0,0,1,2.2,1.72l1.73,1.66Z" transform="translate(-223.06 -403.94)"></path><path class="cls-2" d="M252.2,406.66a1.78,1.78,0,0,0-.13.8c0,1.34-.17,3.18-.29,4-.31,2.06-.72,2.55-2.15,2.55a9.77,9.77,0,0,1-1.48-.13,3.65,3.65,0,0,0-.27-1.53,6.26,6.26,0,0,0,1.57.28c.51,0,.69-.27.88-1.3a27.17,27.17,0,0,0,.26-3.81h-2.77a8.92,8.92,0,0,1-.95,3.41,8.74,8.74,0,0,1-3.21,3.29,4.78,4.78,0,0,0-1.07-1.26,6.67,6.67,0,0,0,3.09-3,6.12,6.12,0,0,0,.61-2.07c0-.16,0-.28.06-.37l-2,0a8,8,0,0,0-1.28.06l0-1.47a7,7,0,0,0,1.32.1h2.09c0-.46.06-1.15.06-1.49v-.3a2,2,0,0,0,0-.46l1.59,0c0,.16,0,.2,0,.37s0,.14,0,.23c0,.25,0,.25,0,.87,0,.26,0,.36-.05.75l2.64,0a2.53,2.53,0,0,0,.94-.1Z" transform="translate(-223.06 -403.94)"></path><path class="cls-2" d="M269.28,405a5.86,5.86,0,0,0-.44.42,20.39,20.39,0,0,1-2.81,2.45v5.08a8.59,8.59,0,0,0,.06,1.32h-1.66a6.6,6.6,0,0,0,.07-1.28v-4.19a19.59,19.59,0,0,1-4.25,1.93,4.47,4.47,0,0,0-.8-1.36,17.35,17.35,0,0,0,6.25-3.09,9.41,9.41,0,0,0,2.21-2.23Z" transform="translate(-223.06 -403.94)"></path></svg>