<svg id="图层_1" data-name="图层 1" xmlns="http://www.w3.org/2000/svg" viewBox="0 0 190.48 19.84"><defs></defs><path class="cls-1" d="M206.35,424.08a2.82,2.82,0,0,0,.54,1.54,3,3,0,0,0,2.45,1c1.61,0,2.57-.71,2.57-1.85a1.58,1.58,0,0,0-.88-1.48,15.88,15.88,0,0,0-3.12-.85,8.22,8.22,0,0,1-3.37-1.21,4.64,4.64,0,0,1-2-4c0-3.2,2.58-5.22,6.68-5.22,2.64,0,4.66.83,5.79,2.37a5.8,5.8,0,0,1,1,2.5l-4.42.48a2.15,2.15,0,0,0-.5-1.17,2.49,2.49,0,0,0-2-.75c-1.38,0-2.31.67-2.31,1.65a1.41,1.41,0,0,0,1,1.33,12.31,12.31,0,0,0,2.88.69,10.12,10.12,0,0,1,3.37,1.18,4.66,4.66,0,0,1,2.27,4.25,5.29,5.29,0,0,1-1.46,3.83,4.87,4.87,0,0,1-1.79,1.14,10.37,10.37,0,0,1-3.7.63,10.26,10.26,0,0,1-4.65-1,5,5,0,0,1-2.24-2.66,7.85,7.85,0,0,1-.46-2Z" transform="translate(-202.02 -411.34)"></path><path class="cls-1" d="M232.66,426.64a36.9,36.9,0,0,0,2.2,3.08h-5.41a28.12,28.12,0,0,0-1.44-2.64l-3.22-5.16-2.1,2.1v2.62a24.42,24.42,0,0,0,.16,3.08h-4.41a24.76,24.76,0,0,0,.17-3.08V415.49a23.89,23.89,0,0,0-.17-3.08h4.41a23.92,23.92,0,0,0-.16,3.08v3.68l4.14-4.43a13.05,13.05,0,0,0,1.81-2.33h5.62c-.31.33-.44.45-.65.64l-1.14,1.17s-.27.27-.48.48l-4.35,4.55Z" transform="translate(-202.02 -411.34)"></path><path class="cls-1" d="M245.85,426.64a24.36,24.36,0,0,0,.17,3.08h-4.54a24,24,0,0,0,.17-3.08v-3.85l-4.77-7.87c-.77-1.2-.88-1.35-1.69-2.51h5.27a12.09,12.09,0,0,0,1,2.18l2.31,4.23,2.31-4.21a11.1,11.1,0,0,0,1-2.2h5.24c-.52.74-1.21,1.81-1.66,2.51l-4.77,7.87Z" transform="translate(-202.02 -411.34)"></path><path class="cls-1" d="M253.72,417.46a21.19,21.19,0,0,0,3.35.17h10.45a3.34,3.34,0,0,0,1.66-.23l1.63,1.75a4.08,4.08,0,0,0-.59,1.31c-1.93,5.45-4.79,8.24-10.55,10.39a11.68,11.68,0,0,0-2.33-3.42q6.74-1.65,8.7-6.59h-9a32.41,32.41,0,0,0-3.31.12Zm1.72-5.2a19.62,19.62,0,0,0,3.06.17h6.64a20.43,20.43,0,0,0,3.27-.17v3.5c-.79-.07-1.77-.11-3.2-.11h-6.75a25.4,25.4,0,0,0-3,.11Z" transform="translate(-202.02 -411.34)"></path><path class="cls-1" d="M290.2,414.07a7.84,7.84,0,0,0-.81.77,34.69,34.69,0,0,1-4.81,4.18v8a27.73,27.73,0,0,0,.13,3.37h-4a29.79,29.79,0,0,0,.12-3.35v-5.75a34.88,34.88,0,0,1-6.8,3.08,11.19,11.19,0,0,0-2-3.35A30.35,30.35,0,0,0,283,415.63a15.56,15.56,0,0,0,3.79-3.81Z" transform="translate(-202.02 -411.34)"></path><path class="cls-1" d="M309.06,414.9a2.73,2.73,0,0,0-.44,1.17c-1.66,7.12-5.27,11.45-12.11,14.51a10.94,10.94,0,0,0-2.63-3.5c5.54-1.71,9.31-5.39,10.47-10.24h-8.63a29.93,29.93,0,0,0-3.5.12V413.2a20.87,20.87,0,0,0,3.56.16h9.89a3.26,3.26,0,0,0,1.52-.27Z" transform="translate(-202.02 -411.34)"></path><path class="cls-1" d="M325.06,419.17h2.46a19.53,19.53,0,0,0,2.43-.12v3.18a21.05,21.05,0,0,0-2.45-.12h-1.56a12.26,12.26,0,0,0,4.66,4.47,15.69,15.69,0,0,0-1.56,3.29A14.28,14.28,0,0,1,325,425c0,.67.06,1.33.06,1.85v1.48a24.3,24.3,0,0,0,.13,2.64h-3.29a26.24,26.24,0,0,0,.12-2.64V427.1c0-.56,0-1.21.06-2a13.82,13.82,0,0,1-4.32,4.67A13.94,13.94,0,0,0,316,427v1.33a25.14,25.14,0,0,0,.12,2.68h-3.28a26.22,26.22,0,0,0,.12-2.68V425.5c0-.46,0-1.27.06-2a10.67,10.67,0,0,1-1.62,3.35,15.08,15.08,0,0,0-1-3.54,14.34,14.34,0,0,0,2.35-5.51h-.48a6,6,0,0,0-1.33.1v-3.1a5.82,5.82,0,0,0,1.33.1H313v-1.35a11.6,11.6,0,0,0-.13-2.16h3.31a15.21,15.21,0,0,0-.12,2.16v1.35h.37a4.59,4.59,0,0,0,1-.08v1.46a13.61,13.61,0,0,0,1.17-4.37l2.87.72c-.06.21-.17.63-.31,1.23l-.13.52h1v-.87a15.26,15.26,0,0,0-.12-2.1h3.33a13.32,13.32,0,0,0-.13,2.1v.87H327a19.09,19.09,0,0,0,2.43-.12v3.18a21.42,21.42,0,0,0-2.45-.12h-1.88Zm-9,7.7a13,13,0,0,0,4.91-4.76h-.66a16.42,16.42,0,0,0-2.48.14v-1.16c-.52,1.35-.73,1.91-.9,2.49a7.48,7.48,0,0,1-.91-1.75c0,.57,0,1.36,0,2.13ZM317.8,419a9.81,9.81,0,0,0,1.1.13,12.36,12.36,0,0,0-1.54-1.29v0a4.09,4.09,0,0,0-.89-.08h-.38a9.41,9.41,0,0,0,1.71,2.74Zm2.27-1.7a12.77,12.77,0,0,1-.88,1.83c.46,0,.67,0,1.06,0H322v-1.85Z" transform="translate(-202.02 -411.34)"></path><path class="cls-1" d="M334.7,422.27c-.77,0-1.67,0-2.31.09v-3a23.61,23.61,0,0,0,2.39.1h4.68a22.79,22.79,0,0,0,2.34-.1v3c-.65-.05-1.54-.09-2.29-.09h-.84v3.85c1.34-.23,2.15-.41,3.9-.81v3c-3.31.77-6.48,1.37-9,1.72-.7.11-1.08.17-1.43.25l-.46-3.26a31.51,31.51,0,0,0,3.89-.38v-4.33Zm13.92-7.72a12.31,12.31,0,0,0,2-.1v3.16a23.26,23.26,0,0,0-2.7-.13h-2.4c.25,4.5,1,7.48,2.5,9.35a12.3,12.3,0,0,0,.58-3,11.37,11.37,0,0,0,2.56,1.54,10.67,10.67,0,0,1-1.18,4.29,2.06,2.06,0,0,1-1.77,1.17c-1.21,0-2.58-1.21-3.64-3.23-1.25-2.35-2-5.56-2.23-10.08h-7.95c-1,0-1.79,0-2.71.13v-3.19a22,22,0,0,0,2.71.13h7.82l0-.92a16.66,16.66,0,0,0-.14-2h3.43a7.62,7.62,0,0,0-.08,1.23c0,.59,0,1,0,1.71h1.91a9.31,9.31,0,0,0-1.58-1.79l2.37-1.21a11.58,11.58,0,0,1,1,1,11,11,0,0,1,.92,1.15l-1.63.83Z" transform="translate(-202.02 -411.34)"></path><path class="cls-1" d="M356.47,418.86a19.52,19.52,0,0,1-2.92,1.41,15.1,15.1,0,0,0-1.56-3.06c3.17-.85,6.87-3.39,8.29-5.66h3.37c1.48,2.19,5.18,4.6,8.49,5.52a14.28,14.28,0,0,0-1.46,3.29,23.77,23.77,0,0,1-3.1-1.52V420a18.66,18.66,0,0,0-2-.08h-7.18c-.68,0-1.35,0-1.95.08Zm-.94,5.18a20.25,20.25,0,0,0-2.54.13V421c.73.06,1.6.11,2.54.11H368.6c1,0,1.77,0,2.52-.11v3.19a19.91,19.91,0,0,0-2.52-.13h-2.06l.77.85a46.77,46.77,0,0,1,3.62,4.52l-2.87,1.77c-.54-.87-.6-1-1-1.54-3.31.38-4.83.52-11.42,1-.61,0-1.32.13-1.84.21l-.39-3.48c.58,0,.87,0,1.39,0l1.44,0a26.86,26.86,0,0,0,1.81-3.39Zm9.41-6.91a15.59,15.59,0,0,1-2.92-2.77,14.6,14.6,0,0,1-2.93,2.77ZM361.73,424a25.85,25.85,0,0,1-1.81,3.29l1.63-.06c1.45-.06,1.7-.09,3.58-.25-.5-.61-.84-1-1.77-2l2.45-1Z" transform="translate(-202.02 -411.34)"></path><path class="cls-1" d="M379.11,428.77l0,1a10.24,10.24,0,0,0,.1,1.23h-3.33a12.71,12.71,0,0,0,.13-2.29v-4.22a12.73,12.73,0,0,1-1.83,1.31,11.9,11.9,0,0,0-1.36-3.12,12.62,12.62,0,0,0,5.42-5.27h-2.94a14.84,14.84,0,0,0-1.81.08v-3.08a10,10,0,0,0,1.62.09H376v-1.54a14.14,14.14,0,0,0-.1-1.59h3.28a12,12,0,0,0-.1,1.61v1.52h.58a6.07,6.07,0,0,0,1.19-.07l1.37,1.44a6.92,6.92,0,0,0-.5,1,15.28,15.28,0,0,1-1.87,3.39,10.87,10.87,0,0,0,3.33,2.5,17.16,17.16,0,0,0-1.56,3,10.14,10.14,0,0,1-2.52-2.15Zm9.18-1.46H390a23.54,23.54,0,0,0,2.54-.1v3.26c-.92-.08-1.73-.12-2.52-.12h-6.77c-.79,0-1.62,0-2.43.12v-3.26a23.35,23.35,0,0,0,2.49.1H385v-7.62h-1.06c-.73,0-1.37,0-2.06.1v-3.22a14.59,14.59,0,0,0,2.06.1H385v-2.81a18.87,18.87,0,0,0-.12-2.45h3.54a16.08,16.08,0,0,0-.13,2.45v2.81h1.64a14.41,14.41,0,0,0,2.07-.1v3.22c-.69-.06-1.34-.1-2.07-.1h-1.64Z" transform="translate(-202.02 -411.34)"></path></svg>